<?xml version="1.0" standalone="no"?>
<!DOCTYPE svg PUBLIC "-//W3C//DTD SVG 20010904//EN"
 "http://www.w3.org/TR/2001/REC-SVG-20010904/DTD/svg10.dtd">
<svg version="1.0" xmlns="http://www.w3.org/2000/svg"
 width="1042.000000pt" height="1042.000000pt" viewBox="0 0 1042.000000 1042.000000"
 preserveAspectRatio="xMidYMid meet">
<metadata>
Created by potrace 1.14, written by Peter Selinger 2001-2017
</metadata>
<g transform="translate(0.000000,1042.000000) scale(0.100000,-0.100000)"
fill="#000000" stroke="none">
<path d="M3951 6949 c-280 -31 -549 -116 -843 -266 l-148 -75 0 -1284 0 -1284
120 60 c636 319 1267 354 1805 101 55 -26 131 -66 169 -89 37 -23 72 -42 77
-42 5 0 9 533 9 1265 0 1263 0 1265 -21 1286 -30 30 -174 122 -254 161 -145
72 -304 125 -462 153 -111 19 -342 27 -452 14z"/>
<path d="M6116 6950 c-195 -23 -383 -78 -559 -166 -101 -50 -243 -140 -267
-169 -7 -8 -9 -408 -8 -1284 l3 -1271 54 36 c83 56 255 138 371 178 180 61
340 88 535 92 178 3 250 -3 426 -36 216 -41 478 -132 684 -238 52 -27 97 -47
100 -44 2 3 5 575 5 1272 0 1002 -2 1269 -12 1282 -16 20 -192 114 -308 163
-188 81 -388 140 -570 170 -119 19 -350 27 -454 15z"/>
<path d="M2613 6293 c-10 -4 -13 -280 -13 -1339 l0 -1334 1130 0 c1277 0 1169
7 1256 -84 64 -67 113 -81 254 -73 112 6 137 16 200 83 24 26 59 53 77 60 27
12 236 14 1168 14 l1135 0 0 1328 c0 730 -4 1332 -8 1339 -5 8 -39 11 -107 10
l-100 -2 -5 -1213 c-5 -1187 -5 -1214 -24 -1228 -32 -23 -72 -16 -130 21 -70
44 -248 133 -356 178 -218 89 -460 149 -681 166 -396 32 -844 -104 -1127 -342
-60 -51 -87 -49 -161 11 -33 26 -106 75 -163 109 -356 212 -777 277 -1208 187
-250 -53 -523 -158 -744 -288 -101 -60 -131 -67 -165 -38 l-21 17 0 1206 c0
1126 -1 1207 -17 1213 -18 7 -170 6 -190 -1z"/>
</g>
</svg>
